<svg xmlns="http://www.w3.org/2000/svg" viewBox="0 0 74 73" preserveAspectRatio="xMinYMin meet">
  <g fill="none" fill-rule="evenodd" stroke="#002ACC" stroke-width="2">
    <path d="M72.477 36.284c0 19.486-15.857 35.283-35.414 35.283-19.558 0-35.413-15.797-35.413-35.283C1.65 16.797 17.505 1 37.063 1 56.62 1 72.477 16.797 72.477 36.284z"/>
    <path d="M34.648 46.545c2.346 3.408 5.977 5.606 10.069 5.606 4.09 0 7.722-2.198 10.068-5.606M59.322 33.25c-1.446-2.103-3.688-3.457-6.21-3.457s-4.762 1.354-6.21 3.457M37.063 31.521a3.471 3.471 0 0 1-3.476 3.464 3.47 3.47 0 0 1-3.476-3.464 3.47 3.47 0 0 1 3.476-3.463 3.471 3.471 0 0 1 3.476 3.463z"/>
  </g>
</svg>
