<svg xmlns="http://www.w3.org/2000/svg" viewBox="0 0 74 73" preserveAspectRatio="xMinYMin meet">
  <g fill="none" fill-rule="evenodd" stroke="#002ACC" stroke-width="2">
    <path d="M72.887 36.284c0 19.486-16.02 35.283-35.78 35.283S1.325 55.77 1.325 36.284C1.326 16.797 17.346 1 37.106 1c19.761 0 35.78 15.797 35.78 35.284z"/>
    <path d="M20.643 22.936c0 1.911-1.572 3.463-3.513 3.463-1.938 0-3.512-1.552-3.512-3.463 0-1.912 1.574-3.464 3.512-3.464 1.94 0 3.513 1.552 3.513 3.464zM39.96 22.936c0 1.911-1.572 3.463-3.512 3.463s-3.513-1.552-3.513-3.463c0-1.912 1.574-3.464 3.513-3.464 1.94 0 3.512 1.552 3.512 3.464zM17.13 37.638c2.25 3.408 5.738 5.604 9.659 5.604 3.923 0 7.409-2.196 9.659-5.604"/>
  </g>
</svg>
