<svg xmlns="http://www.w3.org/2000/svg" viewBox="0 0 75 75" preserveAspectRatio="xMinYMin meet">
  <g fill="#002ACC" fill-rule="evenodd">
    <path d="M37.5 71.491c-18.744 0-33.991-15.247-33.991-33.991S18.756 3.509 37.5 3.509 71.491 18.756 71.491 37.5 56.244 71.491 37.5 71.491M37.5 0C16.823 0 0 16.823 0 37.5S16.823 75 37.5 75 75 58.177 75 37.5 58.177 0 37.5 0"/>
    <path d="M42.5 51.669c-3.366 0-6.511-1.7-8.633-4.669L31 48.884C33.779 52.77 37.972 55 42.5 55s8.721-2.229 11.5-6.116L51.133 47c-2.122 2.968-5.267 4.669-8.633 4.669M53.5 29c-2.959 0-5.694 1.494-7.5 4.095L48.814 35c1.161-1.674 2.87-2.632 4.686-2.632 1.818 0 3.527.958 4.686 2.632L61 33.095C59.196 30.494 56.46 29 53.5 29M32.333 32a1.667 1.667 0 1 1 3.335.001A1.667 1.667 0 0 1 32.333 32M39 32c0-2.757-2.243-5-5-5s-5 2.243-5 5 2.243 5 5 5 5-2.243 5-5"/>
  </g>
</svg>
