<svg xmlns="http://www.w3.org/2000/svg" viewBox="0 0 75 75" preserveAspectRatio="xMinYMin meet">
  <g fill="#002ACC" fill-rule="evenodd">
    <path d="M63.002 31c-1.24 1.671-3.064 2.631-5.001 2.631-1.94 0-3.762-.96-5-2.631L50 32.905C51.927 35.508 54.843 37 58 37s6.073-1.492 8-4.095L63.002 31zM47 32.905L44.002 31c-1.24 1.671-3.063 2.631-5 2.631-1.941 0-3.764-.96-5-2.631L31 32.905C32.928 35.508 35.842 37 39.002 37c3.156 0 6.07-1.492 7.998-4.095M49 48.631c-1.938 0-3.761-.958-5.002-2.631L41 47.905C42.927 50.508 45.843 52 49 52s6.073-1.492 8-4.095L53.998 46c-1.237 1.673-3.06 2.631-4.999 2.631"/>
    <path d="M37.5 71.491c-18.744 0-33.991-15.247-33.991-33.991S18.756 3.509 37.5 3.509 71.491 18.756 71.491 37.5 56.244 71.491 37.5 71.491M37.5 0C16.823 0 0 16.823 0 37.5S16.823 75 37.5 75 75 58.177 75 37.5 58.177 0 37.5 0"/>
  </g>
</svg>
