<svg xmlns="http://www.w3.org/2000/svg" viewBox="0 0 75 75" preserveAspectRatio="xMinYMin meet">
  <g fill="#002ACC" fill-rule="evenodd">
    <path d="M37.5 71.491c-18.744 0-33.991-15.247-33.991-33.991S18.756 3.509 37.5 3.509 71.491 18.756 71.491 37.5 56.244 71.491 37.5 71.491M37.5 0C16.823 0 0 16.823 0 37.5S16.823 75 37.5 75 75 58.177 75 37.5 58.177 0 37.5 0"/>
    <path d="M15.333 24a1.667 1.667 0 1 1 3.335.001A1.667 1.667 0 0 1 15.333 24M22 24c0-2.757-2.243-5-5-5s-5 2.243-5 5 2.243 5 5 5 5-2.243 5-5M36 25.667a1.667 1.667 0 1 1 .001-3.335A1.667 1.667 0 0 1 36 25.667M36 19c-2.757 0-5 2.243-5 5s2.243 5 5 5 5-2.243 5-5-2.243-5-5-5M27 42.655c-3.145 0-6.094-1.698-8.091-4.655L16 39.826C18.648 43.75 22.66 46 27 46s8.352-2.251 11-6.174L35.091 38c-1.997 2.957-4.946 4.655-8.091 4.655"/>
  </g>
</svg>
