<svg xmlns="http://www.w3.org/2000/svg" viewBox="0 0 74 73" preserveAspectRatio="xMinYMin meet">
  <g fill="none" fill-rule="evenodd" stroke="#002ACC" stroke-width="2">
    <path d="M50.002 29.955c1.462 2.103 3.727 3.459 6.275 3.459 2.548 0 4.812-1.356 6.275-3.459M30.893 29.955c1.46 2.103 3.726 3.459 6.274 3.459s4.812-1.356 6.275-3.459M41.417 45.732c1.462 2.104 3.727 3.458 6.275 3.458 2.548 0 4.813-1.354 6.275-3.458"/>
    <path d="M72.56 36.284c0 19.486-16.018 35.283-35.78 35.283C17.02 71.567 1 55.77 1 36.284 1 16.797 17.019 1 36.78 1c19.762 0 35.78 15.797 35.78 35.284z"/>
  </g>
</svg>
