<svg xmlns="http://www.w3.org/2000/svg" xmlns:xlink="http://www.w3.org/1999/xlink" width="75" height="75" viewBox="0 0 75 75" preserveAspectRatio="xMinYMin meet">
  <defs>
    <path d="M0 75h75V0H0z"/>
  </defs>
  <g fill="none" fill-rule="evenodd">
    <path fill="#002ACC" d="M37.5 71.491c-18.744 0-33.991-15.247-33.991-33.991S18.756 3.509 37.5 3.509 71.491 18.756 71.491 37.5 56.244 71.491 37.5 71.491M37.5 0C16.823 0 0 16.823 0 37.5S16.823 75 37.5 75 75 58.177 75 37.5 58.177 0 37.5 0"/>
    <path fill="#002ACC" d="M23 50h6V29h-6zM26.502 18a3.5 3.5 0 1 0-.005 6.999A3.5 3.5 0 0 0 26.502 18M46.305 29c-3.12 0-5.21 1.698-6.068 3.308h-.089v-2.8H34V50h6.409V39.863c0-2.671.508-5.261 3.845-5.261 3.292 0 3.334 3.055 3.334 5.431V50H54V38.762C54 33.242 52.803 29 46.305 29" />
  </g>
</svg>
