<svg xmlns="http://www.w3.org/2000/svg" viewBox="0 0 75 75" preserveAspectRatio="xMinYMin meet">
  <g fill="#002ACC" fill-rule="evenodd">
    <path d="M37.5 71.491c-18.744 0-33.991-15.247-33.991-33.991S18.756 3.509 37.5 3.509 71.491 18.756 71.491 37.5 56.244 71.491 37.5 71.491M37.5 0C16.823 0 0 16.823 0 37.5S16.823 75 37.5 75 75 58.177 75 37.5 58.177 0 37.5 0"/>
    <path d="M56.924 22.573a16.306 16.306 0 0 1-5.081 1.9A8.073 8.073 0 0 0 46.003 22C41.584 22 38 25.504 38 29.826c0 .614.07 1.21.208 1.782-6.65-.326-12.547-3.441-16.493-8.175a7.662 7.662 0 0 0-1.083 3.933c0 2.717 1.411 5.112 3.559 6.516a8.117 8.117 0 0 1-3.625-.98l-.001.1c0 3.79 2.76 6.953 6.42 7.671a8.16 8.16 0 0 1-3.613.135c1.018 3.108 3.973 5.373 7.475 5.435a16.277 16.277 0 0 1-9.938 3.35c-.644 0-1.283-.035-1.908-.107A23.021 23.021 0 0 0 31.265 53C45.982 53 54.03 41.075 54.03 30.733c0-.34-.007-.676-.023-1.011A16.098 16.098 0 0 0 58 25.669a16.246 16.246 0 0 1-4.595 1.233c1.651-.97 2.92-2.501 3.519-4.329"/>
  </g>
</svg>
