<svg xmlns="http://www.w3.org/2000/svg" viewBox="0 0 951 106" preserveAspectRatio="xMinYMin meet">
  <g fill="#002ACC" fill-rule="evenodd">
    <path d="M470.21 20.9c0-6.312 3.807-19.31 22.706-19.31 12.865 0 21.44 15.246 24.518 24.55l1.05.383V8.205S508.529 0 492.915 0c-12.698 0-32.317 6.748-32.317 26.249 0 30.73 54.324 26.556 54.324 53.587 0 14.35-7.9 23.96-22.038 23.96-24.506 0-31.485-27.587-31.485-33.232l-1.62-.923V95.99s14.6 9.62 33.105 9.62c12.106 0 33.105-7.647 33.105-30.197 0-34.501-55.78-27.116-55.78-54.514M228.909 93.003s-8.413 7.604-17.063 7.604c-9.555 0-11.972-9.385-11.972-13.849 0-7.887 2.417-20.977 29.035-20.977v27.222zm-11.354-55.652c-9.042 0-24.042 8.205-24.042 8.205v18.317l1.05-.382c3.079-9.305 12.636-24.88 22.992-24.88 9.54 0 11.354 7.517 11.354 16.675v8.46c-14.024 0-40.738 5.597-40.738 25.695 0 7.76 6.869 15.646 20.48 15.646 13.23 0 20.258-10.049 20.258-10.049v7.95h11.353V54.46c0-7.887-6.297-17.109-22.707-17.109zM570.224 93.003s-8.413 7.604-17.062 7.604c-9.555 0-11.972-9.385-11.972-13.849 0-7.887 2.417-20.977 29.034-20.977v27.222zm-11.353-55.652c-9.043 0-24.042 8.205-24.042 8.205v18.317l1.05-.382c3.078-9.305 12.636-24.88 22.992-24.88 9.541 0 11.353 7.517 11.353 16.675v8.46c-14.024 0-40.737 5.597-40.737 25.695 0 7.76 6.87 15.646 20.48 15.646 13.23 0 20.257-10.049 20.257-10.049v7.95h11.354V54.46c0-7.887-6.297-17.109-22.707-17.109zM776.471 93.003s-8.413 7.604-17.062 7.604c-9.556 0-11.972-9.385-11.972-13.849 0-7.887 2.416-20.977 29.034-20.977v27.222zm-11.354-55.652c-9.042 0-24.04 8.205-24.04 8.205v18.317l1.048-.382c3.08-9.305 12.637-24.88 22.992-24.88 9.542 0 11.354 7.517 11.354 16.675v8.46c-14.024 0-40.737 5.597-40.737 25.695 0 7.76 6.87 15.646 20.48 15.646 13.23 0 20.257-10.049 20.257-10.049v7.95h11.353V54.46c0-7.887-6.296-17.109-22.707-17.109zM834.985 93.003s-8.412 7.604-17.062 7.604c-9.555 0-11.972-9.385-11.972-13.849 0-7.887 2.417-20.977 29.034-20.977v27.222zm-11.353-55.652c-9.043 0-24.042 8.205-24.042 8.205v18.317l1.05-.382c3.079-9.305 12.636-24.88 22.992-24.88 9.54 0 11.353 7.517 11.353 16.675v8.46c-14.023 0-40.737 5.597-40.737 25.695 0 7.76 6.869 15.646 20.48 15.646 13.23 0 20.257-10.049 20.257-10.049v7.95h11.354V54.46c0-7.887-6.297-17.109-22.707-17.109zM938.785 93.003s-8.413 7.604-17.062 7.604c-9.555 0-11.972-9.385-11.972-13.849 0-7.887 2.417-20.977 29.034-20.977v27.222zM927.43 37.351c-9.042 0-24.041 8.205-24.041 8.205v18.317l1.049-.382c3.079-9.305 12.637-24.88 22.992-24.88 9.542 0 11.354 7.517 11.354 16.675v8.46c-14.024 0-40.737 5.597-40.737 25.695 0 7.76 6.869 15.646 20.479 15.646 13.23 0 20.258-10.049 20.258-10.049v7.95h11.353V54.46c0-7.887-6.296-17.109-22.707-17.109zM408.188 93.003s-8.413 7.604-17.063 7.604c-9.555 0-11.972-9.385-11.972-13.849 0-7.887 2.417-20.977 29.035-20.977v27.222zm-11.354-55.652c-9.042 0-24.042 8.205-24.042 8.205v18.317l1.05-.382c3.079-9.305 12.637-24.88 22.992-24.88 9.542 0 11.354 7.517 11.354 16.675v8.46c-14.024 0-40.737 5.597-40.737 25.695 0 7.76 6.869 15.646 20.479 15.646 13.23 0 20.258-10.049 20.258-10.049v7.95h11.353V54.46c0-7.887-6.297-17.109-22.707-17.109zM94.286 102.53c-12.366 1.698-24.34-11.115-26.743-28.618-2.403-17.503 5.673-33.069 18.039-34.767 12.366-1.698 24.34 11.113 26.743 28.616 2.404 17.504-5.673 33.07-18.04 34.769m-4.351-65.943c-19.224 0-34.808 15.335-34.808 34.25 0 18.916 15.584 34.25 34.808 34.25s34.808-15.334 34.808-34.25c0-18.915-15.584-34.25-34.808-34.25M898.253 45.556s-4.647-8.205-18.514-8.205c-8.784 0-14.479 8.26-14.479 8.26V37.16l-11.354 4.58v61.249h11.354V50.91c0-3.734 6.146-11.923 13.842-11.923 9.386 0 15.39 14.658 18.236 24.59l1.085.295-.17-18.317zM591.085 102.989h11.354V.524l-11.354 4.58zM735.654 39.641L712.33 89.925l-24.536-50.284h-12.88l31.915 65.446h2.169l.976-2.098h.017l29.385-63.348zM651.126 101.658c-1.078.393-2.187.712-3.346.871-2.722.373-5.42.008-8.006-.92-9.163-3.287-16.864-14.048-18.737-27.697-2.404-17.503 5.673-33.068 18.038-34.767 2.097-.288 4.18-.128 6.208.371 2.02.496 3.98 1.36 5.843 2.54 7.313 4.63 13.103 14.124 14.692 25.706 2.178 15.862-4.264 30.094-14.692 33.896m0-64.22c-.146-.033-.293-.069-.442-.1a35.46 35.46 0 0 0-7.256-.75c-19.225 0-34.808 15.334-34.808 34.25 0 18.915 15.583 34.25 34.808 34.25 19.224 0 34.808-15.335 34.808-34.25 0-16.312-11.591-29.95-27.11-33.4M38.101 87.152c0 9.158-2.127 16.676-12.706 16.676-12.39 0-21.776-19.514-24.346-28.94L0 74.506v22.376s14.274 8.206 25.464 8.206c16.41 0 23.99-9.222 23.99-17.11V.526l-11.353 4.58v82.047zM162.51 37.35c-9.756 0-17.822 7.93-21.469 14.315V.525l-11.353 4.58v97.884h11.353V55.61c3.823-8.47 12.24-16.24 19.885-16.24 8.46 0 11.055 5.189 11.055 16.012 0 8.57.162 47.606.162 47.606h11.352v-48.53c0-14.326-14.05-17.108-20.985-17.108M280.43 37.35c-9.757 0-17.823 7.93-21.47 14.315v-14.96l-11.353 4.58v61.704h11.353V55.61c3.823-8.47 12.24-16.24 19.885-16.24 8.46 0 11.055 5.189 11.055 16.012 0 8.57.162 47.606.162 47.606h11.352v-48.53c0-14.326-14.05-17.108-20.985-17.108M341.488 37.35c-9.756 0-17.823 7.93-21.47 14.315v-14.96l-11.352 4.58v61.704h11.353V55.61c3.822-8.47 12.24-16.24 19.885-16.24 8.459 0 11.055 5.189 11.055 16.012 0 8.57.162 47.606.162 47.606h11.352v-48.53c0-14.326-14.051-17.108-20.985-17.108"/>
  </g>
</svg>
