<svg
  xmlns="http://www.w3.org/2000/svg"
  xmlns:xlink="http://www.w3.org/1999/xlink"
  viewBox="0 0 262 123"
  preserveAspectRatio="xMinYMin meet">
  <defs>
    <path id="a" d="M0 .696h35.643V57H0z"/>
  </defs>
  <g fill="none" fill-rule="evenodd">
    <g transform="translate(0 66)">
      <mask id="b" fill="#fff">
        <use xlink:href="#a"/>
      </mask>
      <path fill="#002ACC" d="M0 37.823v14.048S7.86 57 17.82 57c6.519 0 17.822-4.078 17.822-16.1 0-18.395-30.028-14.458-30.028-29.063 0-3.366 2.05-10.295 12.224-10.295 6.924 0 11.541 8.127 13.198 13.088l.566.205V5.068S26.243.696 17.839.696C11.002.696.44 4.292.44 14.689c0 16.384 29.245 14.16 29.245 28.57 0 7.65-4.254 12.774-11.865 12.774C4.63 56.033.874 41.324.874 38.314l-.875-.491z" mask="url(#b)"/>
    </g>
    <path fill="#002ACC" d="M58.897 116.578s-4.522 4.042-9.172 4.042c-5.136 0-6.435-4.988-6.435-7.361 0-4.191 1.299-11.148 15.607-11.148v14.467zM52.795 87c-4.862 0-12.923 4.36-12.923 4.36v9.736l.564-.203c1.654-4.945 6.792-13.223 12.359-13.223 5.128 0 6.102 3.995 6.102 8.863v4.495c-7.54 0-21.897 2.976-21.897 13.658C37 118.81 40.692 123 48.008 123c7.111 0 10.89-5.34 10.89-5.34v4.225H65V96.093C65 91.902 61.615 87 52.795 87zM168.899 116.578s-4.524 4.042-9.172 4.042c-5.137 0-6.435-4.988-6.435-7.361 0-4.191 1.298-11.148 15.607-11.148v14.467zM162.796 87c-4.862 0-12.924 4.36-12.924 4.36v9.736l.565-.203c1.655-4.945 6.793-13.223 12.359-13.223 5.127 0 6.103 3.995 6.103 8.863v4.495c-7.54 0-21.899 2.976-21.899 13.658 0 4.123 3.692 8.314 11.01 8.314 7.11 0 10.889-5.34 10.889-5.34v4.225H175V96.093c0-4.191-3.384-9.093-12.204-9.093zM199.897 116.578s-4.522 4.042-9.172 4.042c-5.136 0-6.435-4.988-6.435-7.361 0-4.191 1.299-11.148 15.607-11.148v14.467zM193.795 87c-4.862 0-12.923 4.36-12.923 4.36v9.736l.564-.203c1.654-4.945 6.792-13.223 12.359-13.223 5.128 0 6.102 3.995 6.102 8.863v4.495c-7.54 0-21.897 2.976-21.897 13.658 0 4.123 3.692 8.314 11.008 8.314 7.111 0 10.89-5.34 10.89-5.34v4.225H206V96.093c0-4.191-3.385-9.093-12.205-9.093zM255.897 116.578s-4.522 4.042-9.17 4.042c-5.137 0-6.435-4.988-6.435-7.361 0-4.191 1.298-11.148 15.605-11.148v14.467zM249.796 87c-4.862 0-12.924 4.36-12.924 4.36v9.736l.565-.203c1.655-4.945 6.793-13.223 12.359-13.223 5.127 0 6.101 3.995 6.101 8.863v4.495c-7.538 0-21.897 2.976-21.897 13.658 0 4.123 3.692 8.314 11.01 8.314 7.11 0 10.887-5.34 10.887-5.34v4.225H262V96.093c0-4.191-3.385-9.093-12.204-9.093zM233.908 91.464s-2.505-4.364-9.98-4.364c-4.737 0-7.807 4.393-7.807 4.393V87L210 89.435V122h6.12V94.311c0-1.985 3.315-6.34 7.464-6.34 5.06 0 8.296 7.794 9.831 13.075l.585.156-.092-9.738zM76 67l-6 2.458V122h6zM149 88h-1.963l-12.302 26.892L121.793 88H115l16.834 35h1.142l.516-1.122h.01zM101.592 121.148a8.584 8.584 0 0 1-1.778.47c-1.449.202-2.88.006-4.256-.498-4.87-1.775-8.962-7.587-9.958-14.958-1.279-9.455 3.014-17.863 9.587-18.781 1.115-.154 2.22-.068 3.3.202 1.073.266 2.115.733 3.105 1.37 3.886 2.5 6.963 7.63 7.808 13.887 1.158 8.566-2.265 16.255-7.808 18.308m0-34.689c-.078-.016-.155-.037-.235-.055A18.66 18.66 0 0 0 97.5 86C87.283 86 79 94.283 79 104.5S87.283 123 97.5 123s18.5-8.283 18.5-18.5c0-8.81-6.16-16.178-14.408-18.04M140.897 49.578s-4.522 4.04-9.172 4.04c-5.135 0-6.435-4.987-6.435-7.36 0-4.191 1.3-11.148 15.607-11.148v14.468zM134.795 20c-4.862 0-12.923 4.36-12.923 4.36v9.736l.564-.203c1.656-4.945 6.792-13.223 12.359-13.223 5.128 0 6.102 3.995 6.102 8.862v4.496c-7.54 0-21.897 2.975-21.897 13.657 0 4.122 3.692 8.315 11.008 8.315 7.111 0 10.89-5.341 10.89-5.341v4.225H147V29.093C147 24.9 143.615 20 134.795 20zM236.898 49.578s-4.524 4.04-9.172 4.04c-5.136 0-6.435-4.987-6.435-7.36 0-4.191 1.299-11.148 15.607-11.148v14.468zM230.795 20c-4.861 0-12.922 4.36-12.922 4.36v9.736l.564-.203c1.654-4.945 6.792-13.223 12.358-13.223 5.127 0 6.103 3.995 6.103 8.862v4.496c-7.54 0-21.898 2.975-21.898 13.657 0 4.122 3.693 8.315 11.009 8.315 7.11 0 10.889-5.341 10.889-5.341v4.225H243V29.093C243 24.9 239.615 20 230.795 20zM68.814 54.618c-6.572.917-12.937-6.003-14.214-15.457-1.278-9.454 3.015-17.86 9.588-18.78 6.571-.916 12.937 6.004 14.214 15.458 1.276 9.454-3.016 17.862-9.588 18.78M66.5 19C56.283 19 48 27.283 48 37.5 48 47.716 56.283 56 66.5 56 76.719 56 85 47.716 85 37.5 85 27.283 76.719 19 66.5 19M39.031 2.453v43.941c0 4.905-1.119 8.931-6.679 8.931-6.513 0-11.449-10.451-12.8-15.498L19 39.622v11.984S26.505 56 32.388 56C41.015 56 45 51.06 45 46.837V0l-5.969 2.453zM105.69 19.767c-5.258 0-9.605 4.256-11.571 7.684V0L88 2.458V55h6.119V29.568c2.06-4.545 6.597-8.716 10.717-8.716 4.56 0 5.959 2.784 5.959 8.594 0 4.6.086 25.554.086 25.554H117V28.95c0-7.69-7.572-9.183-11.31-9.183M168.69 19.34c-5.258 0-9.605 4.187-11.571 7.56V19L151 21.417V54h6.119V28.982c2.06-4.47 6.597-8.575 10.717-8.575 4.558 0 5.959 2.74 5.959 8.455 0 4.525.086 25.138.086 25.138H180V28.374c0-7.565-7.573-9.034-11.31-9.034M200.691 19.34c-5.259 0-9.606 4.187-11.572 7.56V19L183 21.417V54h6.119V28.982c2.06-4.47 6.597-8.575 10.717-8.575 4.56 0 5.959 2.74 5.959 8.455 0 4.525.086 25.138.086 25.138H212V28.374c0-7.565-7.572-9.034-11.309-9.034"/>
  </g>
</svg>
